<svg id="visual" viewBox="0 0 960 450" width="960" height="450" xmlns="http://www.w3.org/2000/svg" xmlns:xlink="http://www.w3.org/1999/xlink" version="1.1"><rect x="0" y="0" width="960" height="450" fill="#ffffff"></rect><path d="M629 450L634.2 443.2C639.3 436.3 649.7 422.7 660.8 409C672 395.3 684 381.7 693.3 368C702.7 354.3 709.3 340.7 711.8 327C714.3 313.3 712.7 299.7 701 286C689.3 272.3 667.7 258.7 660.7 245.2C653.7 231.7 661.3 218.3 675.2 204.8C689 191.3 709 177.7 716.3 164C723.7 150.3 718.3 136.7 707.5 123C696.7 109.3 680.3 95.7 679.2 82C678 68.3 692 54.7 698.5 41C705 27.3 704 13.7 703.5 6.8L703 0L960 0L960 6.8C960 13.7 960 27.3 960 41C960 54.7 960 68.3 960 82C960 95.7 960 109.3 960 123C960 136.7 960 150.3 960 164C960 177.7 960 191.3 960 204.8C960 218.3 960 231.7 960 245.2C960 258.7 960 272.3 960 286C960 299.7 960 313.3 960 327C960 340.7 960 354.3 960 368C960 381.7 960 395.3 960 409C960 422.7 960 436.3 960 443.2L960 450Z" fill="#136231" stroke-linecap="round" stroke-linejoin="miter"></path></svg>