<svg width="126" height="170" viewBox="0 0 126 170" fill="none" xmlns="http://www.w3.org/2000/svg">
<g clip-path="url(#clip0_384_3961)">
<path d="M62.72 169.216C100.608 169.216 125.696 138.496 125.696 91.904V77.312C125.696 30.72 100.608 0 62.976 0C25.088 0 0 30.72 0 77.312V91.904C0 138.496 25.088 169.216 62.72 169.216ZM62.72 165.12C28.16 165.12 4.864 135.936 4.864 91.904V77.312C4.864 33.28 27.904 4.09601 62.976 4.09601C97.792 4.09601 121.088 33.536 121.088 77.568V91.904C121.088 135.936 97.792 165.12 62.72 165.12Z" fill="#696D85"/>
</g>
<defs>
<clipPath id="clip0_384_3961">
<rect width="125.696" height="169.216" fill="white"/>
</clipPath>
</defs>
</svg>
