<svg id="visual" viewBox="0 0 900 600" width="900" height="600" xmlns="http://www.w3.org/2000/svg" xmlns:xlink="http://www.w3.org/1999/xlink" version="1.1"><rect x="0" y="0" width="900" height="600" fill="#f5fafd"></rect><path d="M0 395L21.5 390C43 385 86 375 128.8 382.7C171.7 390.3 214.3 415.7 257.2 428.2C300 440.7 343 440.3 385.8 439.2C428.7 438 471.3 436 514.2 426.2C557 416.3 600 398.7 642.8 387.3C685.7 376 728.3 371 771.2 370.3C814 369.7 857 373.3 878.5 375.2L900 377L900 601L878.5 601C857 601 814 601 771.2 601C728.3 601 685.7 601 642.8 601C600 601 557 601 514.2 601C471.3 601 428.7 601 385.8 601C343 601 300 601 257.2 601C214.3 601 171.7 601 128.8 601C86 601 43 601 21.5 601L0 601Z" fill="#7db275"></path><path d="M0 426L21.5 430C43 434 86 442 128.8 442.7C171.7 443.3 214.3 436.7 257.2 429C300 421.3 343 412.7 385.8 419.7C428.7 426.7 471.3 449.3 514.2 459.3C557 469.3 600 466.7 642.8 460.5C685.7 454.3 728.3 444.7 771.2 444C814 443.3 857 451.7 878.5 455.8L900 460L900 601L878.5 601C857 601 814 601 771.2 601C728.3 601 685.7 601 642.8 601C600 601 557 601 514.2 601C471.3 601 428.7 601 385.8 601C343 601 300 601 257.2 601C214.3 601 171.7 601 128.8 601C86 601 43 601 21.5 601L0 601Z" fill="#96c392"></path><path d="M0 448L21.5 447.3C43 446.7 86 445.3 128.8 444C171.7 442.7 214.3 441.3 257.2 446.2C300 451 343 462 385.8 471C428.7 480 471.3 487 514.2 493.2C557 499.3 600 504.7 642.8 505.7C685.7 506.7 728.3 503.3 771.2 495.3C814 487.3 857 474.7 878.5 468.3L900 462L900 601L878.5 601C857 601 814 601 771.2 601C728.3 601 685.7 601 642.8 601C600 601 557 601 514.2 601C471.3 601 428.7 601 385.8 601C343 601 300 601 257.2 601C214.3 601 171.7 601 128.8 601C86 601 43 601 21.5 601L0 601Z" fill="#b0d4af"></path><path d="M0 528L21.5 526.2C43 524.3 86 520.7 128.8 519.5C171.7 518.3 214.3 519.7 257.2 517.2C300 514.7 343 508.3 385.8 505.2C428.7 502 471.3 502 514.2 500.3C557 498.7 600 495.3 642.8 496.3C685.7 497.3 728.3 502.7 771.2 505.2C814 507.7 857 507.3 878.5 507.2L900 507L900 601L878.5 601C857 601 814 601 771.2 601C728.3 601 685.7 601 642.8 601C600 601 557 601 514.2 601C471.3 601 428.7 601 385.8 601C343 601 300 601 257.2 601C214.3 601 171.7 601 128.8 601C86 601 43 601 21.5 601L0 601Z" fill="#cbe5cc"></path><path d="M0 559L21.5 553.8C43 548.7 86 538.3 128.8 535C171.7 531.7 214.3 535.3 257.2 539.5C300 543.7 343 548.3 385.8 549.8C428.7 551.3 471.3 549.7 514.2 546.3C557 543 600 538 642.8 540.5C685.7 543 728.3 553 771.2 555C814 557 857 551 878.5 548L900 545L900 601L878.5 601C857 601 814 601 771.2 601C728.3 601 685.7 601 642.8 601C600 601 557 601 514.2 601C471.3 601 428.7 601 385.8 601C343 601 300 601 257.2 601C214.3 601 171.7 601 128.8 601C86 601 43 601 21.5 601L0 601Z" fill="#e8f5e9"></path></svg>